<svg width="36" height="36" viewBox="0 0 36 36" fill="none" xmlns="http://www.w3.org/2000/svg">
<g id="person_add_24px">
<path id="icon/social/person_add_24px" fill-rule="evenodd" clip-rule="evenodd" d="M22.5 18C25.815 18 28.5 15.315 28.5 12C28.5 8.685 25.815 6 22.5 6C19.185 6 16.5 8.685 16.5 12C16.5 15.315 19.185 18 22.5 18ZM22.5 9C24.15 9 25.5 10.35 25.5 12C25.5 13.65 24.15 15 22.5 15C20.85 15 19.5 13.65 19.5 12C19.5 10.35 20.85 9 22.5 9ZM10.5 27C10.5 23.01 18.495 21 22.5 21C26.505 21 34.5 23.01 34.5 27V30H10.5V27ZM13.5 27C13.83 25.92 18.465 24 22.5 24C26.55 24 31.2 25.935 31.5 27H13.5ZM9 18V22.5H6V18H1.5V15H6V10.5H9V15H13.5V18H9Z" fill="black" fill-opacity="0.54"/>
</g>
</svg>
