<svg width="36" height="36" viewBox="0 0 36 36" fill="none" xmlns="http://www.w3.org/2000/svg">
<g id="question_answer_24px">
<path id="icon/action/question_answer_24px" fill-rule="evenodd" clip-rule="evenodd" d="M24 3H4.5C3.675 3 3 3.675 3 4.5V25.5L9 19.5H24C24.825 19.5 25.5 18.825 25.5 18V4.5C25.5 3.675 24.825 3 24 3ZM22.5 6V16.5H7.755L6.87 17.385L6 18.255V6H22.5ZM28.5 9H31.5C32.325 9 33 9.675 33 10.5V33L27 27H10.5C9.675 27 9 26.325 9 25.5V22.5H28.5V9Z" fill="black" fill-opacity="0.54"/>
</g>
</svg>
