<svg width="35" height="35" viewBox="0 0 35 35" fill="none" xmlns="http://www.w3.org/2000/svg">
<g id="search_24px">
<path id="icon/action/search_24px" fill-rule="evenodd" clip-rule="evenodd" d="M21.824 20.7885H22.9761L30.2531 28.0802L28.0802 30.2531L20.7886 22.976V21.8239L20.3948 21.4156C18.7323 22.8447 16.574 23.7052 14.2261 23.7052C8.99064 23.7052 4.74689 19.4614 4.74689 14.226C4.74689 8.99058 8.99064 4.74683 14.2261 4.74683C19.4615 4.74683 23.7052 8.99058 23.7052 14.226C23.7052 16.5739 22.8448 18.7322 21.4156 20.3947L21.824 20.7885ZM7.66356 14.226C7.66356 17.8572 10.5948 20.7885 14.2261 20.7885C17.8573 20.7885 20.7886 17.8572 20.7886 14.226C20.7886 10.5947 17.8573 7.6635 14.2261 7.6635C10.5948 7.6635 7.66356 10.5947 7.66356 14.226Z" fill="#828282"/>
</g>
</svg>
