<svg width="28" height="28" viewBox="0 0 28 28" fill="none" xmlns="http://www.w3.org/2000/svg">
<g id="perm_identity_24px">
<path id="icon/action/perm_identity_24px" fill-rule="evenodd" clip-rule="evenodd" d="M14 4.66663C11.4217 4.66663 9.33336 6.75496 9.33336 9.33329C9.33336 11.9116 11.4217 14 14 14C16.5784 14 18.6667 11.9116 18.6667 9.33329C18.6667 6.75496 16.5784 4.66663 14 4.66663ZM16.3334 9.33329C16.3334 8.04996 15.2834 6.99996 14 6.99996C12.7167 6.99996 11.6667 8.04996 11.6667 9.33329C11.6667 10.6166 12.7167 11.6666 14 11.6666C15.2834 11.6666 16.3334 10.6166 16.3334 9.33329ZM21 19.8333C20.7667 19.005 17.15 17.5 14 17.5C10.85 17.5 7.23335 19.005 7.00002 19.845V21H21V19.8333ZM4.66669 19.8333C4.66669 16.73 10.885 15.1666 14 15.1666C17.115 15.1666 23.3334 16.73 23.3334 19.8333V23.3333H4.66669V19.8333Z" fill="black" fill-opacity="0.54"/>
</g>
</svg>
