<svg width="32" height="36" viewBox="0 0 32 36" fill="none" xmlns="http://www.w3.org/2000/svg">
<g id="perm_contact_calendar_24px">
<path id="icon/action/perm_contact_calendar_24px" fill-rule="evenodd" clip-rule="evenodd" d="M27.5467 7.32C27.64 7.485 27.72 7.65 27.7867 7.83C27.92 8.19 28 8.58 28 9V30C28 30.615 27.8267 31.2 27.5467 31.68C27.36 31.995 27.1067 32.28 26.8267 32.49C26.68 32.595 26.5333 32.685 26.3733 32.76C26.0533 32.91 25.7067 33 25.3333 33H6.66667C5.18667 33 4 31.65 4 30V9C4 8.58 4.08 8.19 4.21333 7.83C4.28 7.65 4.36 7.485 4.45333 7.32C4.64 7.005 4.89333 6.72 5.17333 6.51C5.6 6.195 6.10667 6 6.66667 6H8V3H10.6667V6H21.3333V3H24V6H25.3333C25.7067 6 26.0533 6.09 26.3733 6.24C26.5333 6.315 26.68 6.405 26.8267 6.51C27.1067 6.72 27.36 7.005 27.5467 7.32ZM6.66667 9V30H25.3333V9H6.66667ZM16 20.82C13.2933 20.82 8 22.44 8 26.19V28.5H24V26.205C24 22.44 18.7067 20.82 16 20.82ZM16 23.82C14.2534 23.82 12 24.66 11.08 25.5H20.92C20.0134 24.66 17.7467 23.82 16 23.82ZM16 19.5C18.2 19.5 20 17.475 20 15C20 12.525 18.2 10.5 16 10.5C13.8 10.5 12 12.525 12 15C12 17.475 13.8 19.5 16 19.5ZM17.3333 15C17.3333 14.175 16.7333 13.5 16 13.5C15.2667 13.5 14.6667 14.175 14.6667 15C14.6667 15.825 15.2667 16.5 16 16.5C16.7333 16.5 17.3333 15.825 17.3333 15Z" fill="black" fill-opacity="0.54"/>
</g>
</svg>
